<?xml version="1.0" standalone="no"?>
<!DOCTYPE svg PUBLIC "-//W3C//DTD SVG 1.1//EN" "http://www.w3.org/Graphics/SVG/1.1/DTD/svg11.dtd" >
<!--
2013-9-30: Created.
-->
<svg>
<metadata>
Created by iconfont
</metadata>
<defs>

<font id="iconfont" horiz-adv-x="1024" >
  <font-face
    font-family="iconfont"
    font-weight="500"
    font-stretch="normal"
    units-per-em="1024"
    ascent="896"
    descent="-128"
  />
    <missing-glyph />
    
    <glyph glyph-name="fanhui" unicode="&#58921;" d="M343.474729 294.324011l434.316352-430.420559-52.864097-52.322298L290.301033 241.511514l0 0-51.0323 50.516301L739.194356 786.63865 790.252457 736.148148 343.474729 294.324011zM343.474729 294.324011"  horiz-adv-x="1024" />

    
    <glyph glyph-name="warn" unicode="&#58895;" d="M909.81888 383.76063999999997c1.02144-218.69184-178.87104-397.91872-398.10944-397.7024C292.89984-13.722880000000032 113.86624 165.40544 114.17472 384.57728 114.48064 603.23712 293.46944 782.3296 512.8576 781.94048 731.31008 781.5539200000001 910.9952 602.86208 909.81888 383.76063999999997zM851.91168 384.12032c-0.06528 187.37152-152.06528 339.5648-339.24352 339.67872-188.12032 0.11008-340.38912-151.96416-340.34816-339.90912 0.04224-187.62624 152.21632-339.69792 339.90784-339.6736C699.8464 44.240639999999985 851.97696 196.47231999999997 851.91168 384.12032zM482.51392 440.70016c0 72.6208-0.00256 145.24416 0.00256 217.86496 0.00256 10.17728 0.02432 10.18752 10.3872 10.19392 13.728 0.00512 27.456-0.1408 41.18016 0.064 5.0496 0.07552 7.53408-1.65632 7.13088-6.88768-0.1344-1.76-0.00768-3.54176-0.00768-5.312 0.00256-143.69152 0.00256-287.38688-0.00256-431.07712 0-2.43584-0.0768-4.87168-0.06016-7.30624 0.02176-3.60832-1.9136-5.28128-5.34656-5.2864-15.94112-0.032-31.88096-0.0256-47.8208-0.01152-3.90656 0.00512-5.53088 2.14912-5.43488 5.91232 0.06016 2.21184-0.02688 4.42752-0.02688 6.64192C482.51392 297.22752 482.51392 368.96384 482.51392 440.70016zM482.528 143.33695999999998c-0.00256 11.93088 0.16512 23.86816-0.07808 35.79776-0.11008 5.47328 2.02496 7.3984 7.4304 7.3152 14.8032-0.23552 29.61024-0.21632 44.416-0.01408 5.2096 0.0704 6.99008-2.04416 6.9632-7.08736-0.13824-24.30976-0.1408-48.61568-0.00256-72.92288 0.02944-5.14688-1.97376-7.02592-7.08224-6.95808-15.02336 0.20608-30.05568 0.18944-45.08032 0.01408-4.91648-0.05632-6.66368 2.01472-6.61248 6.73152C482.62016 118.58432000000005 482.53056 130.96191999999996 482.528 143.33695999999998z"  horiz-adv-x="1024" />

    
    <glyph glyph-name="chacha" unicode="&#58961;" d="M511.999488 787.469304c-269.221628 0-487.469304-218.247676-487.469304-487.469304 0-269.221628 218.247676-487.469304 487.469304-487.469304 269.221628 0 487.469304 218.247676 487.469304 487.469304C999.469815 569.221628 781.221116 787.469304 511.999488 787.469304zM788.476357 69.996582l-79.024821-70.586638L507.779374 225.195294 281.995047 23.523131l-70.584592 79.024821 225.784326 201.671139L235.523643 530.004441l79.024821 70.584592 201.671139-225.784326L742.003929 576.475845l70.584592-79.023798L586.804195 295.779885 788.476357 69.996582z"  horiz-adv-x="1024" />

    
    <glyph glyph-name="menu" unicode="&#58937;" d="M64.28444444 751.21777778l910.22222223 0 0-72.81777778-910.22222223 0 0 72.81777778ZM64.28444444 399.07555556l910.22222223 0 0-72.81777778-910.22222223 0 0 72.81777778ZM64.28444444 43.51999999999998l910.22222223 0 0-72.81777778-910.22222223 0 0 72.81777778Z"  horiz-adv-x="1024" />

    
    <glyph glyph-name="dot" unicode="&#58890;" d="M123.15778122 420.34279113m-95.11903996 0a92.95266721 92.95266721 0 1 1 190.23808167 0 92.95266721 92.95266721 0 1 1-190.23808167 0ZM511.19773548 420.34279113m-95.11903995 0a92.95266721 92.95266721 0 1 1 190.23808168 0 92.95266721 92.95266721 0 1 1-190.23808168 0ZM899.23403241 420.34279113m-95.11903996 0a92.95266721 92.95266721 0 1 1 190.23808167 0 92.95266721 92.95266721 0 1 1-190.23808167 0Z"  horiz-adv-x="1024" />

    
    <glyph glyph-name="complete" unicode="&#58896;" d="M73.261 385.627c-15.68 15.27-16.035 40.372-0.766 56.066 15.255 15.681 40.358 16.036 56.052 0.767l264.555-257.365 499.404 491.997c15.613 15.352 40.701 15.133 56.053-0.466 15.352-15.613 15.146-40.714-0.466-56.053l-527.026-519.208c-15.311-15.079-39.947-15.216-55.422-0.151l-292.383 284.412z"  horiz-adv-x="1024" />

    
    <glyph glyph-name="fund" unicode="&#58897;" d="M3.14155 449.372893l188.984189-346.482269c19.09694-34.136471 42.971697-58.458413 96.018867-64.012919l448.104761 0c35.360346 0 80.08599 23.974018 96.027054 64.012919l188.484815 342.065679c0 1.220804 3.561106 5.728468 3.186576 10.019191l0.37453 32.014134c0 70.703295-57.32152 128.024815-128.033002 128.024815-9.865695 0-9.865695 0-18.74697 1.144056-10.137895-0.723477-4.422729-0.353041-13.258978-1.144056-44.345997-6.601348-69.490677-10.45205-97.842399-16.214287C757.014296 715.032392 647.426389 807.062412 512.196475 807.062412c-138.216945 0-250.091942-96.018867-255.114328-215.887932-35.677571 7.154957-48.175209 9.324366-87.051635 18.270109 1.294482-1.375324 0 0-14.127765 2.209318-8.962116 2.02717-18.192338 3.361561-27.798113 3.361561-70.711482 0-128.033002-57.32152-128.033002-128.024815C0.071631 486.990652-2.074242 468.422761 3.14155 449.372893zM512.196475 743.041306c105.444541 0 190.881398-70.857814 191.866842-158.533666-0.757247-0.187265-1.196245-1.299599-1.969864-1.49505-54.822606-20.814048-119.885438-32.009018-189.896978-32.009018-69.686129 0-136.518257 6.995321-191.186344 27.638477-0.936325-0.049119 0.158612 5.083785-0.785899 5.002944C320.647881 671.727097 406.393777 743.041306 512.196475 743.041306zM237.969856 541.153226c78.356602-31.219026 168.790264-54.162574 274.226618-54.162574 105.030102 0 200.649879 24.101931 273.746688 63.646576-0.228197-0.399089-0.529049-0.757247-0.74906-1.156336 5.03876 0.479931 9.906627 1.52268 15.06716 1.52268 21.017686 0 40.318264 6.89913 64.168462 5.594415 14.000875-0.936325 20.713764-1.861394 34.280758-3.581572 36.32737-4.604878 66.00325-29.635971 66.00325-64.979944 0-13.675464 0.198521-21.582551-4.412496-33.059953L768.255315 102.890624 256.138658 102.890624 64.092737 454.976518c-3.174296 11.531638-0.940418 17.900695 0 32.014134 2.349511 35.265178 28.66076 64.012919 64.012919 64.012919 13.667278 0 32.786731 3.629667 61.974493 1.023306 17.657148-2.018983 10.525728-1.322112 30.974455-6.139837"  horiz-adv-x="1040" />

    
    <glyph glyph-name="yijian" unicode="&#58947;" d="M511.104603 822.56111c250.351542 0 454.025988-175.405851 454.025988-391.009047S761.455124 40.544036 511.104603 40.544036c-37.394185 0-138.847302-29.436237-226.745345-57.385083 9.095966 28.650658 12.957461 55.644346 7.539109 77.301407-5.060806 20.2279-17.353231 36.906901-34.609414 46.96109C131.923172 180.472148 57.077594 301.642384 57.077594 431.553084 57.077594 647.15628 260.753061 822.56111 511.104603 822.56111M511.104603 879.314869c-282.095482 0-510.779747-200.468792-510.779747-447.761785 0-155.765349 90.730828-292.952616 228.391078-373.167511 37.916202-22.093267-54.244809-171.44833-54.244809-171.44833s281.166884 96.854056 336.633479 96.854056c282.096503 0 510.779747 200.468792 510.779747 447.761785S793.200085 879.314869 511.104603 879.314869L511.104603 879.314869zM291.24559 430.669435m-53.453101 0a52.325 52.325 0 1 0 106.906201 0 52.325 52.325 0 1 0-106.906201 0ZM511.104603 430.669435m-53.453101 0a52.325 52.325 0 1 0 106.906201 0 52.325 52.325 0 1 0-106.906201 0ZM730.963616 430.669435m-53.453101 0a52.325 52.325 0 1 0 106.906201 0 52.325 52.325 0 1 0-106.906201 0Z"  horiz-adv-x="1038" />

    
    <glyph glyph-name="pinglun" unicode="&#59022;" d="M767.991872-127.960264l-124.825185 225.913536L71.647597 97.953272c-39.508408 0-71.647597 32.56906-71.647597 72.594036L0 817.445566c0 40.024976 32.139189 72.590424 71.647597 72.590424l885.964406 0c39.515633 0 71.672884-32.56906 71.672884-72.590424l0-646.90187c0-40.024976-32.153638-72.594036-71.672884-72.594036l-66.832318 0L767.991872-127.960264 767.991872-127.960264zM71.647597 831.107521c-7.011596 0-12.719128-6.126567-12.719128-13.661955l0-646.90187c0-7.535388 5.70392-13.658342 12.719128-13.658342l606.284466 0 89.63355-162.231198 88.170543 162.231198 101.872234 0c7.022433 0 12.73719 6.122954 12.73719 13.658342L970.34558 817.445566c0 7.535388-5.714757 13.661955-12.73719 13.661955L71.647597 831.107521 71.647597 831.107521zM71.647597 831.107521M253.053215 573.947049l525.544553 0c21.497169 0 38.934043 14.492798 38.934043 32.348706 0 17.855908-17.436874 32.341481-38.934043 32.341481L253.053215 638.637236c-21.522456 0-38.937655-14.485573-38.937655-32.341481C214.119173 588.439847 231.534372 573.947049 253.053215 573.947049L253.053215 573.947049zM253.053215 573.947049M786.913427 429.308056 261.376098 429.308056c-21.522456 0-38.941267-14.489186-38.941267-32.348706 0-17.855908 17.418812-32.341481 38.941267-32.341481l525.537328 0c21.504394 0 38.941267 14.485573 38.941267 32.341481C825.854694 414.81887 808.417821 429.308056 786.913427 429.308056L786.913427 429.308056zM786.913427 429.308056"  horiz-adv-x="1030" />

    
    <glyph glyph-name="token" unicode="&#59016;" d="M974.71975981 483.44388142c-25.97361588 26.22216723-63.52558206 34.32079867-98.01208162 21.08543936-19.44914299-7.45654045-60.0458632-14.39526558-79.78498276-20.60904928-26.45000596-8.32647017-53.37640202-15.30662053-80.24066023-21.35470333-21.60325467 97.92923117-108.94834094 171.45900499-213.27776933 171.459005-104.43299145 0-191.86092816-73.71618734-213.33990715-171.81111941-41.50807515 9.32067555-103.50092389 21.29256549-143.84909275 35.95709503-34.83861396 12.61398092-72.36986754 3.99753419-98.05350684-22.45247178-25.45580057-26.26359245-32.82949057-63.73270818-18.434225-99.64837799l202.44507307-330.88398223C246.19504577 9.994988420000027 279.74947777-12.022518500000047 317.65355837-12.022518500000047l387.30513825 0c38.06978149 0 71.66563872 22.14178259 84.81814755 55.75835243l205.17913789 341.57169019C1008.54345577 419.77331106 1000.79693875 457.13886375 974.71975981 483.44388142zM503.40426587 592.5786358600001c84.30033225 0 154.88891511-59.23807131 172.68104914-138.2566874C562.12452187 433.71289918 444.84971077 433.46434783 330.66107891 454.01125927 348.34964987 533.17486366 419.00037057 592.5786358600001 503.40426587 592.5786358600001zM957.21760237 401.91903921l-205.17913789-341.21957576C744.3747979 41.250320450000004 725.8991477 29.402706179999996 704.95869662 29.402706179999996L317.65355837 29.402706179999996c-20.83688802 0-39.27111301 11.76476382-47.84613453 32.95376625l-202.44507307 331.23609663c-7.5601035 18.99346551-3.64541977 38.87757337 10.52200708 53.45925247 9.92134131 10.25274311 22.68031052 15.51374665 36.03994548 15.51374664 5.98594497 0 12.11687822-1.11848107 18.16496102-3.29330536 53.50067769-19.42843038 129.30883888-34.54863739 184.48723817-44.88423096 130.15805598-24.35803212 264.33435875-22.88743664 393.74676068 4.14252248 33.07804192 6.89729991 66.38392257 15.5965971 99.00628702 25.8493402 20.54691145 6.48304766 61.95142352 13.69103677 82.2083584 21.45826639 19.24201687 7.37368999 39.27111301 3.02404141 53.76994165-11.57835029C959.82739152 439.6159937 963.99062661 419.35905882 957.21760237 401.91903921z"  horiz-adv-x="1024" />

    
    <glyph glyph-name="add" unicode="&#59027;" d="M896-128L128-128c-70.4 0-128 57.6-128 128L0 768c0 70.4 57.6 128 128 128l768 0c70.4 0 128-57.6 128-128l0-768C1024-70.39999999999998 966.4-128 896-128zM128 832C89.6 832 64 806.4 64 768l0-768c0-38.4 25.6-64 64-64l768 0c38.4 0 64 25.6 64 64L960 768c0 38.4-25.6 64-64 64L128 832zM768 352L256 352C236.8 352 224 364.79999999999995 224 384S236.8 416 256 416l512 0c19.2 0 32-12.8 32-32S787.2 352 768 352zM512 96c-19.2 0-32 12.8-32 32L480 640c0 19.2 12.8 32 32 32S544 659.2 544 640l0-512C544 108.79999999999995 531.2 96 512 96z"  horiz-adv-x="1024" />

    
    <glyph glyph-name="close" unicode="&#58968;" d="M943.58273662 815.75047324c-13.97202714 14.02329199-36.69691992 14.02329199-50.73640048 1e-8L512.41956523 434.75528818 131.96851104 815.75047324c-13.97292627 14.02329199-36.69422168 14.02329199-50.67074531 1e-8-14.02329199-13.97292627-14.02329199-36.75268125 0-50.81824513l380.42946914-380.93582549L81.29686661 3.056979790000014c-14.02329199-14.02239287-14.02329199-36.78865752-1e-8-50.81015039 13.97382539-14.02059375 36.69691992-14.02059375 50.67074531 0l380.45195332 380.98259385L892.84633613-47.75317147999999c14.03948144-14.02059375 36.78955664-14.02059375 50.73640049 0 14.05027354 14.02149375 14.05027354 36.78775752 0 50.81015039l-380.44385947 380.93672461L943.58273662 764.93042901C957.60512949 778.99779112 957.60512949 801.77754698 943.58273662 815.75047324L943.58273662 815.75047324z"  horiz-adv-x="1024" />

    
    <glyph glyph-name="xiangji" unicode="&#58970;" d="M510.545882 502.646214c-88.978521 0-161.108305-72.130807-161.108305-161.109328 0-88.977497 72.129784-161.108305 161.108305-161.108305 88.977497 0 161.108305 72.130807 161.108304 161.108305 0 88.978521-72.130807 161.109328-161.108304 161.109328z m385.094682 139.13792H693.623547l-43.938721 87.877443H356.76138l-43.938722-87.877443H125.452223c-34.029024 0-61.615313-27.574009-61.615312-61.588706v-477.31606c0-34.015721 27.586288-61.590753 61.615312-61.590754h770.188341c34.029024 0 61.615313 27.574009 61.615313 61.590754V580.195428c0 34.013675-27.586288 61.588707-61.615313 61.588706zM510.545882 129.166057c-117.288287 0-212.369805 95.081519-212.369805 212.369806 0 117.28931 95.081519 212.369805 212.369805 212.369805s212.369805-95.080495 212.369805-212.369805c0.001023-117.288287-95.081519-212.369805-212.369805-212.369806z"  horiz-adv-x="1024" />

    
    <glyph glyph-name="sweep" unicode="&#58880;" d="M905.84 544l78.768 0L984.608 824c0 22.112-17.616 40-39.392 40l-275.68 0 0-80 236.304 0L905.84 544 905.84 544zM118.144 784l236.32 0L354.464 864 78.768 864C57.008 864 39.376 846.112 39.376 824L39.376 544l78.768 0L118.144 784 118.144 784zM118.144 224L39.376 224l0-279.984C39.376-78.11199999999997 57.008-96 78.768-96l275.68 0 0 80L118.144-16 118.144 224 118.144 224zM905.84-16L669.536-16l0-80 275.68 0c21.776 0 39.392 17.888 39.392 40.016L984.608 224l-78.768 0L905.84-16 905.84-16zM984.624 424L39.376 424C17.616 424 0 406.112 0 384s17.616-39.984 39.376-39.984l945.232 0C1006.384 344.01599999999996 1024 361.88800000000003 1024 384S1006.384 424 984.624 424L984.624 424z"  horiz-adv-x="1024" />

    
    <glyph glyph-name="que" unicode="&#58884;" d="M342.252 484.857c0 69.442 21.494 117.942 63.931 146.6 32.517 24.25 69.994 36.925 112.982 36.925 44.642 0 82.67-13.227 112.982-39.681 32.517-24.25 49.051-62.278 49.051-112.982 3.858-40.784-19.29-84.323-69.994-131.169-30.312-26.454-50.153-47.948-57.869-63.931-8.267-16.534-12.125-41.886-12.125-76.056h-67.238c0 40.784 4.96 71.096 15.432 91.487 6.062 18.188 25.352 43.539 57.869 76.607l9.369 9.369c42.988 36.925 61.175 69.442 55.113 97.55-6.062 58.971-37.477 89.834-94.794 91.487-69.442 0-103.612-41.886-103.612-125.106l-71.097-1.1z m204.469-384.689h-76.607v79.363h76.607v-79.363zM512-128C229.27-128 0 101.82100000000003 0 384 0 666.178 229.822 896 512 896c282.73 0 512-229.821 512-512 0-282.73-229.27-512-512-512z m0 972.745C257.929 844.745 51.255 638.071 51.255 384S257.929-76.745 512-76.745 972.745 129.92899999999997 972.745 384C973.296 638.071 766.071 844.745 512 844.745z"  horiz-adv-x="1024" />

    
    <glyph glyph-name="head" unicode="&#58919;" d="M714.95795672 544.41484601C714.95795672 656.0417225 624.01717998 746.98249925 512 746.98249925S309.4323475 656.0417225 309.4323475 544.41484601c0-63.22920973 29.27278244-119.82325495 74.93832256-157.29241588C251.27708684 335.60233324 156.82357647 206.02148437000005 156.82357647 56.14483998000003c0-19.90549203 15.61215068-35.51764271 35.51764199-35.51764271s35.51764271 15.61215068 35.51764271 35.51764271c0 155.34089768 126.45841872 282.57992412 281.40901219 284.14113883h2.34182314c3.90303785 0 8.1963792 0.3903035 11.70911283 1.95151893 106.55292742 5.46425256 191.63914738 94.06320687 191.63914738 202.17734828zM512 412.49217473c-72.59650013 0-131.92267201 59.32617188-131.92267201 131.92267128S439.40349987 676.3375180200001 512 676.3375180200001c72.59650013 0 131.92267201-59.32617188 131.92267201-131.92267201S584.98680364 412.49217473 512 412.49217473zM720.42220928 342.62780122000004c-15.61215068 11.70911284-37.85946514 8.1963792-49.56857798-7.41577148s-8.1963792-37.85946514 7.41577149-49.56857797c73.37710713-53.4716151 115.92021711-135.82570914 116.70082482-226.76648587 0-19.12488432 16.00245417-34.737035 35.51764273-34.737035h0.39030349c19.90549203 0 35.51764271 16.00245417 34.73703499 35.90794621-0.78060772 110.84626878-55.03283052 217.00889197-145.19299954 282.57992411z"  horiz-adv-x="1024" />

    
    <glyph glyph-name="share" unicode="&#59045;" d="M888.75008 345.05386667000005c-20.2752 0-36.72064-16.42496-36.72064-36.70016v-320.77824a12.26752 12.26752 0 0 0-12.22656-12.24704H110.01856a12.26752 12.26752 0 0 0-12.22656 12.24704V713.30474667c0 6.73792 5.48864 12.22656 12.22656 12.22656h442.65472a36.67968 36.67968 0 0 1 0 73.40032H110.01856a85.7088 85.7088 0 0 1-85.6064-85.62688v-725.72928a85.7088 85.7088 0 0 1 85.6064-85.62688h729.8048a85.72928 85.72928 0 0 1 85.62688 85.62688V308.35370666999995c0 20.2752-16.44544 36.70016-36.70016 36.70016z m99.92192 284.28288l-185.77408 183.45984a36.6592 36.6592 0 1 1-51.52768-52.224l123.37152-121.87648c-430.77632-17.24416-526.35648-416.52224-527.33952-420.80256a36.67968 36.67968 0 1 1 71.55712-16.24064c3.42016 15.07328 83.23072 348.09856 457.1136 363.74528l-132.36224-138.67008a36.6592 36.6592 0 1 1 53.08416-50.66752l192.6144 201.80992a36.6592 36.6592 0 0 1-0.73728 51.46624z"  horiz-adv-x="1024" />

    
    <glyph glyph-name="zan" unicode="&#59155;" d="M911.22941575-133.2641007100001c-162.11163606 0-322.74654571 0.16408014-514.22860912 0.4922417-58.24861428 0-60.54574268 2.29712839-60.54574137 61.36614594 0 56.11556604 0 112.55929363 0.16408013 167.36221468v1.31264498c0.16408014 106.98055344 0.49224171 217.57087895-0.82040327 326.19223895-0.32816157 23.46352559 3.93793494 38.72302234 12.96236835 48.07561603 8.53219171 8.53219171 22.64312361 12.79828692 43.15319769 12.79828691h4.10201506c17.72070526-0.32816157 36.09773237-0.65632185 54.31067936-0.65632185 39.37934417 0 69.40609466 1.47672511 97.79203987 4.75833693 131.59264387 15.09541531 238.57319602 126.01390239 243.49561437 252.68412792 1.64080655 42.66095726 11.3215618 75.96931955 29.37042865 102.05813509 18.04886684 25.92473541 44.95808565 45.12216579 82.04030014 58.57677585h18.3770284c43.97360095-11.3215618 76.46156125-32.65204044 96.31531347-63.49919291 18.70518867-28.87818564 27.23738039-67.60120797 25.43249372-114.69234187-1.64080655-40.19974745-5.57874019-79.90725319-9.68075525-121.91188862v-0.32816027c-1.80488669-19.03335025-3.7738535-38.5589422-5.57874149-58.74085599l-1.14856355-12.30604521h148.32886443c32.15979874 0 58.74085599 0 83.681108-0.16408013 59.88941954-0.32816157 102.71445694-16.24398015 127.49062881-47.25521405 24.940252-31.33939546 30.68307232-77.28196452 17.39254369-136.51506222-16.07989873-71.04690121-32.32387888-144.39093079-46.76297235-209.03868725l-0.65632182-3.11753166c-10.99340025-49.388261-21.98680047-98.7765233-33.14428216-148.1647843-19.68967209-87.78312306-58.57677585-118.95843709-148.49294587-119.12251724-83.68110799-0.16408014-169.8234245-0.16408014-263.34936789-0.16408141z m-1.31264367 65.63224115c113.8719386 0 200.67057697 0 281.39823342-0.16408014 51.52130925 0 61.53022608 43.64544067 67.43712784 69.73425622 25.76065529 113.37969691 52.50579266 232.66629426 79.41501149 354.57818288 8.53219171 38.88710247 10.99340025 66.45264442-3.44569194 84.50150998-14.6031736 18.21294698-43.15319898 22.15088191-84.50151127 22.31496203-38.72302234 0.32816157-77.77420624 0.32816157-115.67682529 0.32816157h-0.4922417c-45.45032736 0-92.54145997 0-138.97627075 0.49224171-33.63652385 0.32816157-52.34171252 5.25057991-58.74085469 15.25949544-6.23506333 9.84483669-2.78937009 29.69858891 10.3370771 59.06901757 32.32387888 72.52362633 41.18423086 149.31334914 27.40146053 234.79934251-5.25057991 32.98020071-28.7141055 56.77188916-55.62332432 56.77188916-12.14196508 0-23.46352559-4.92241835-32.48795902-14.43909346-17.55662512-18.04886684-22.80720374-48.73193916-24.44801029-65.46816101-7.21954674-75.96931955-30.84715376-140.94523757-70.39057806-192.95878853-38.88710247-51.35722911-94.67450822-92.2132984-165.88548957-121.41964562-17.55662512-7.21954674-37.57445749-28.38594394-37.73853894-45.77848893-1.64080655-115.67682529-1.64080655-229.71284404-1.4767251-350.47616781v-107.30871371h170.15158478c51.52130925 0 102.71445694 0.16408014 153.74352578 0.16408014zM405.53299835-65.66289145999997H517.60005027V412.46798401h-111.90297051V-65.66289145999997z"  horiz-adv-x="1509" />

    
    <glyph glyph-name="help" unicode="&#58909;" d="M517.12-128C235.008-128 5.12 101.88800000000003 5.12 384S235.008 896 517.12 896s512-229.888 512-512-229.888-512-512-512z m0 976.384C261.12 848.384 52.736 640 52.736 384S261.12-80.38400000000001 517.12-80.38400000000001s464.384 208.384 464.384 464.384S773.12 848.384 517.12 848.384z m57.344-259.072c-34.816 0-62.976 28.16-62.976 62.976 0 34.816 28.16 63.488 62.976 63.488 34.816 0 62.976-28.16 62.976-63.488 0.512-34.816-28.16-62.976-62.976-62.976zM415.232 478.208v15.36c50.176 19.968 127.488 12.8 179.2 30.72h6.144c-25.088-126.464-77.824-241.664-89.6-370.688 3.072-2.048 2.56-1.536 6.144-3.072 38.912-12.8 61.44 77.312 86.528 71.168 25.088-6.144-15.872-51.2-21.504-58.88-22.528-29.696-66.048-79.872-117.248-80.384-36.352 0-73.728 22.528-68.096 83.456 6.144 60.928 39.936 145.408 58.88 212.992 14.848 55.296 34.304 100.864-40.448 99.328z"  horiz-adv-x="1029" />

    
    <glyph glyph-name="man" unicode="&#59026;" d="M1020.992 170.11199999999997h-65.088a240.832 240.832 0 0 1-288.96 211.328c17.536 18.112 32.832 38.4 45.504 60.352 3.392-0.256 6.464-0.96 9.856-0.96a150.4 150.4 0 1 1 0 300.992c-3.392 0-6.592-0.832-9.856-0.96a305.28 305.28 0 0 1-40.512 54.912c16.192 3.904 32.96 6.4 50.368 6.4a210.688 210.688 0 0 0 117.952-385.216 301.312 301.312 0 0 0 180.736-246.848zM544 332.352a421.376 421.376 0 0 0 298.688-403.008h-66.816c0 2.048 0.256 4.032 0.256 6.08a360.96 360.96 0 1 1-721.92 0c0-2.048 0.32-4.032 0.32-6.08H0c0 176.512 108.8 327.552 262.784 390.208A300.608 300.608 0 0 0 90.24 591.36a300.992 300.992 0 0 0 601.92 0A300.352 300.352 0 0 0 544 332.352zM391.36 832.128a240.832 240.832 0 1 1 0.128-481.664A240.832 240.832 0 0 1 391.36 832.128z"  horiz-adv-x="1024" />

    
    <glyph glyph-name="addman" unicode="&#58908;" d="M998.72 76.48000000000002h-128.64v128.64c0 13.92-11.36 25.28-25.28 25.28s-25.28-11.36-25.28-25.28v-128.64h-128.64c-13.92 0-25.28-11.36-25.28-25.28 0-13.92 11.36-25.28 25.28-25.28h128.64v-128.64c0-13.92 11.36-25.28 25.28-25.28s25.28 11.36 25.28 25.28v128.64h128.64c13.92 0 25.28 11.36 25.28 25.28 0 13.92-11.36 25.28-25.28 25.28zM160.16 51.51999999999998l23.52-10.24c33.6 76.8 93.44 139.52 168.16 176.96l-11.52 22.88c-80.16-40.16-144.16-107.36-180.16-189.6zM817.12 276.48c-50.24 40.64-108.8 71.36-172.8 89.28C733.12 413.12 793.6 506.72 793.6 614.4 793.6 769.92 667.52 896 512 896S230.4 769.92 230.4 614.4c0-107.68 60.48-201.28 149.28-248.64C175.36 308.15999999999997 25.6 120.32000000000005 25.6-102.39999999999998c0-14.08 11.52-25.6 25.6-25.6s25.6 11.52 25.6 25.6c0 240.32 194.88 435.2 435.2 435.2 100 0 192.16-33.76 265.76-90.56 8.64 15.52 22.56 27.68 39.36 34.24zM512 384c-127.2 0-230.4 103.2-230.4 230.4S384.8 844.8 512 844.8s230.4-103.2 230.4-230.4-103.2-230.4-230.4-230.4z"  horiz-adv-x="1024" />

    
    <glyph glyph-name="iconjia" unicode="&#58881;" d="M956.1240653818753 316.94407884624775h-377.4918801217032v-377.55208924331106c0-36.792317387069836-29.839867873102275-66.60264870994936-66.63332128133455-66.60264870994936-36.792317387069836 0-66.63218526017215 29.81033132287954-66.63218526017215 66.60264870994936v377.55208924331106h-377.49415216402804c-36.822989958455004 0-66.63218526017215 29.81033132287954-66.63218526017215 66.60264870994936 0 36.77868513312089 29.812603365204367 66.60264870994936 66.63218526017215 66.60264870994936h377.4918801217032v377.55208924331106c0 36.77868513312089 29.839867873102275 66.60264870994936 66.63218526017215 66.60264870994936 36.793453408232246 0 66.63332128133455-29.825099597990917 66.63332128133455-66.60264870994936v-377.55322526447344h377.4918801217032c36.822989958455004 0 66.63332128133455-29.822827555666088 66.63332128133455-66.60037666762456-0.0011360211624130007-36.792317387069836-29.81033132287954-66.60037666762456-66.63332128133455-66.60037666762456z"  horiz-adv-x="1024" />

    
    <glyph glyph-name="edit" unicode="&#58917;" d="M908.169 384c-25.492 0-47.799-22.305-47.799-47.799v-242.178c0-76.477-15.933-92.411-95.596-92.411H191.193c-73.291 0-92.411 15.933-95.596 73.291V670.789c0 73.291 12.747 92.411 82.851 95.596h630.938c28.678 0 50.985 22.305 50.985 47.799s-22.305 47.799-47.799 47.799H89.223c-47.799-3.187-89.223-44.612-89.223-95.596v-767.959c3.187-50.985 44.612-92.411 95.596-92.411h764.773c54.172 0 95.596 41.425 95.596 95.596V336.201c0 28.678-22.305 47.799-47.799 47.799zM95.597 766.386z m936.848-15.932c-25.492 25.492-66.917 25.492-95.596 0L401.507 208.74c-25.492-25.492-25.492-66.917 0-95.596 25.492-25.492 66.917-25.492 95.596 0l535.342 541.714c25.492 25.492 25.492 70.105 0 95.596z"  horiz-adv-x="1051" />

    
    <glyph glyph-name="view" unicode="&#58894;" d="M1021.16583303 386.22149142c-0.6664474 1.11074571-57.75877683 103.0772018-148.61777589 203.48861388-53.31579403 59.0916717-107.74233376 106.40943892-161.50242609 140.17610848-67.53333914 42.43048607-134.62237993 63.97895281-199.04563105 63.97895287-64.42325114 0-131.51229195-21.54846673-199.04563105-63.97895287-53.76009231-33.76666954-108.18663207-81.08443676-161.50242609-140.17610848-90.63684985-100.63356124-147.95132843-202.60001731-148.61777589-203.48861388l-1.11074569-2.22149142 1.11074569-2.22149142c0.6664474-1.11074571 57.75877683-103.0772018 148.61777589-203.48861388 53.31579403-59.0916717 107.74233376-106.40943892 161.50242609-140.17610848 67.53333914-42.43048607 134.62237993-63.97895281 199.04563105-63.97895287 64.42325114 0 131.51229195 21.54846673 199.04563105 63.97895287 53.76009231 33.76666954 108.18663207 81.08443676 161.50242609 140.17610848 90.63684985 100.63356124 147.95132843 202.60001731 148.61777589 203.48861388l1.11074569 2.22149142-1.11074569 2.22149142z m-55.53728548-2.22149142c-8.21951826-14.43969421-57.75877683-98.1899207-132.62303763-181.05155056-75.08640993-83.30592819-191.93685855-182.60659457-321.22765908-182.60659455-129.29080051 0-245.91909997 99.3006664-321.00550989 182.60659455-74.8642608 82.86162991-124.40351941 166.83400548-132.62303766 181.27369972 8.21951826 14.43969421 57.75877683 98.1899207 132.62303766 181.05155056 75.08640993 83.30592819 191.93685855 182.60659457 321.22765905 182.60659456 129.29080051 0 245.91909997-99.3006664 321.00550992-182.60659456 74.8642608-82.86162991 124.40351941-166.83400548 132.62303763-181.27369972zM512 638.80506565c-108.85307949 0-197.26843796-114.1846589-197.26843796-254.80506565 0-140.39825762 88.41535845-254.80506565 197.26843796-254.80506565s197.26843796 114.1846589 197.26843796 254.80506565c0 140.39825762-88.41535845 254.80506565-197.26843796 254.80506565z m0-463.40310981c-88.1932093 0-159.72523294 93.52478868-159.72523294 208.59804416 0 115.07325548 71.75417278 208.59804416 159.72523294 208.59804416 88.1932093 0 159.72523294-93.52478868 159.72523294-208.59804416 0-115.07325548-71.53202367-208.59804416-159.72523294-208.59804416z"  horiz-adv-x="1024" />

    
    <glyph glyph-name="article" unicode="&#59282;" d="M256.59929799 583.86578201h271.182208c19.676941 0 36.157628 15.481857 36.15762802 36.15762798 0 19.676941-16.480687 36.157628-36.157628 36.157628H256.59929799c-19.676941 0-36.157628-15.481857-36.15762798-36.157628-0.998829-20.675771 15.481857-36.157628 36.157628-36.157628zM768.099883 420.956691H256.59929799c-19.676941 0-36.157628-15.481857-36.15762798-36.157627 0-19.676941 16.480687-36.157628 36.157628-36.157628h512.49941399c19.676941 0 36.157628 15.481857 36.157628 36.157628 0 20.675771-16.480687 36.157628-37.156457 36.157627zM768.099883 185.832228H256.59929799c-19.676941 0-36.157628-15.481857-36.15762798-36.157628 0-19.676941 16.480687-36.157628 36.157628-36.157628h512.49941399c19.676941 0 36.157628 15.481857 36.157628 36.157628S788.77565399 185.832228 768.099883 185.832228zM901.74326999 894.801405H122.156847c-44.747561 0-81.104955-36.35739399-81.104955-81.104956V-46.89504499999998c0-44.747561 36.35739399-81.104955 81.104955-81.104955h779.58642299c44.747561 0 81.104955 36.35739399 81.10495501 81.104955V813.696449c0 44.747561-36.35739399 81.104955-81.10495501 81.104956z m9.98829501-920.521265c0-17.179867-13.983613-31.16348-31.163481-31.16348H143.431916c-17.179867 0-31.16348 13.983613-31.163481 31.16348V792.421381c0 17.179867 13.983613 31.16348 31.163481 31.16348h737.136168c17.179867 0 31.16348-13.983613 31.163481-31.16348v-818.141241z"  horiz-adv-x="1024" />

    
    <glyph glyph-name="send" unicode="&#58914;" d="M834.579968-12.799999999999955c-2.56 0-7.68 0-10.24 2.56l-302.08 107.52c-12.8 2.56-17.92 15.36-15.36 28.16 2.56 12.8 15.36 17.92 28.16 15.36h2.56l289.28-102.4 151.04 765.44L64.019968 302.08000000000004l268.8-94.72c12.8-2.56 17.92-15.36 15.36-28.16-2.56-12.8-15.36-17.92-28.16-15.36h-2.56l-294.4 102.4c-17.92 5.12-28.16 25.6-20.48 43.52 2.56 7.68 7.68 15.36 15.36 17.92L975.379968 852.48c15.36 10.24 35.84 5.12 46.08-10.24 5.12-7.68 7.68-17.92 5.12-25.6l-158.72-801.28c-2.56-17.92-17.92-30.72-33.28-28.16z m148.48 837.12zM445.459968-89.60000000000002c-12.8 0-23.04 10.24-23.04 23.04l2.56 217.6c0 17.92 7.68 35.84 17.92 51.2L983.059968 844.8c7.68 10.24 23.04 10.24 30.72 2.56s10.24-23.04 2.56-30.72l-537.6-642.56c-5.12-5.12-7.68-12.8-7.68-20.48l-5.12-217.6c2.56-12.8-7.68-23.04-20.48-25.6 0 2.56 0 2.56 0 0z"  horiz-adv-x="1027" />

    
    <glyph glyph-name="ren" unicode="&#58892;" d="M376.94122667 568.78193778m-255.98748445 0a255.98748445 255.98748445 0 1 1 511.9749689 0 255.98748445 255.98748445 0 1 1-511.9749689 0ZM764.02915556 9.02371555000002c0.18545778 4.53063111 0.3072 9.07832889 0.3072 13.65219556 0 188.50360889-158.54364445 341.31399111-354.11512889 341.31399111-195.57376 0-354.11512889-152.81152-354.11512889-341.31399111 0-4.57500445 0.12174222-9.12156445 0.3072-13.65219556H764.02915556zM977.06552889 217.92881778000003c0 104.87125333-72.55267555 193.39832889-171.91025777 221.53102222 49.78801778 30.41166222 83.02364445 85.25937778 83.02364444 147.87015111 0 95.63249778-77.52704 173.15726222-173.15726222 173.15726222-33.70666667 0-65.15712-9.64039111-91.76177778-26.29973333 32.07623111-42.76110222 51.08394667-95.88963555 51.08394666-153.45891555 0-53.47669333-13.76824889-157.28526222-98.84216888-218.60807112 82.95879111-23.48828445 136.23068445-81.17475555 180.77354666-153.42478222h220.58211556c0.12401778 3.06403555 0.20821333 6.13944889 0.20821333 9.23306667z"  horiz-adv-x="1024" />

    
    <glyph glyph-name="auth" unicode="&#58974;" d="M1015.878075 158.42424900000003a25.572909 25.572909 0 0 1 0 36.441395 26.212231 26.212231 0 0 1-36.441395 0l-266.597573-263.400959-159.191356 155.35542a24.294263 24.294263 0 0 1-33.884104 0 23.015618 23.015618 0 0 1 0-33.244781l177.731715-174.535102a23.654941 23.654941 0 0 1 17.261713-7.03255 26.212231 26.212231 0 0 1 19.179682 7.671872z m0 0M838.785683 150.11305400000003a467.984229 467.984229 0 0 1-255.729087 177.092393A301.760323 301.760323 0 0 1 457.11002 894.92402a301.760323 301.760323 0 0 1-150.240838-575.390446A463.50897 463.50897 0 0 1 0.6336-28.897306999999955a32.605459 32.605459 0 0 1 31.966136-38.998686 21.736972 21.736972 0 0 1 21.736972 17.901036 409.805862 409.805862 0 0 0 734.581803 166.223907 29.408845 29.408845 0 0 1 30.048167-11.507809 28.769522 28.769522 0 0 1 19.819005 45.391913zM500.583965 348.942419a242.942633 242.942633 0 0 0-56.899722-7.671872A278.105382 278.105382 0 0 0 384.22723 345.106483a255.729087 255.729087 0 0 0-145.126256 86.947889A251.893151 251.893151 0 0 0 456.470698 843.778202a251.893151 251.893151 0 0 0 225.041596-319.661358A250.614505 250.614505 0 0 0 639.956317 447.398118a255.729087 255.729087 0 0 0-139.372352-98.455699z"  horiz-adv-x="1024" />

    
    <glyph glyph-name="message" unicode="&#59036;" d="M922.879625 94.93468700000005l-75.477887 126.862833V496.117153c0 57.483159-25.192619 124.163624-64.980963 176.748218-40.488138 53.484331-97.371473 95.272088-160.15308 117.765499-0.399883 0.099971-0.699795 0.299912-1.099678 0.399883-1.39959 0.399883-6.798008 2.099385-14.695694 4.19877v9.197305c0 49.685444-43.48726 91.573172-95.671972 91.573172-52.284682 0-93.772528-41.887728-93.772527-91.573172v-8.49751c-7.297862-1.999414-11.996485-3.399004-12.496339-3.598946l-0.799766-0.299912c-63.681343-21.993557-121.564385-63.781314-162.95226-117.665528-40.588109-52.884506-66.680465-120.164795-66.680465-178.247779v-274.319633L93.42263 85.63741100000004c-10.097042-16.79508-10.097042-37.788929 0.199942-54.683979 10.197013-16.79508 34.989749-33.590159 55.483745-33.59016h199.54154c11.896515-73.778385 82.175925-124.063653 163.052231-124.063653 80.876306 0 149.156302 50.285268 161.152787 124.063653h199.541541c31.790686 0 65.180904 30.990921 65.180904 61.082105-0.099971 13.695988-5.298448 26.492239-14.695695 36.48931M511.700088 845.114908c24.192912 0 43.987113-15.795372 45.186762-38.588695-0.599824 0.099971-28.591624 4.898565-45.986528 4.898565-13.596017 0-35.889486-2.899151-44.386996-4.398711 1.39959 22.49341 21.09382 38.088841 45.186762 38.088841m0-921.629991c-53.484331 0-101.870155 26.192326-113.166846 73.878355H622.96749c-11.396661-47.686029-57.883042-73.878356-111.267402-73.878355m93.572586 819.759836c107.968369-38.888607 192.143708-146.856975 192.143708-247.1276v-274.319633c0-4.098799-1.699502-9.297276 0.399883-12.896222l83.475544-139.759055c2.199356-3.698916 5.298448-6.698038 9.097335-8.597481-3.299033 1.999414-2.499268 0.099971-2.499268-1.999414 0-4.298741-11.096749-11.19672-15.695402-11.19672H149.106317c-2.899151 0-11.19672 4.998536-12.59631 7.297862-0.699795 1.099678-1.099678 2.499268-1.099678 3.898858s0.399883 2.79918 1.099678 3.898858L223.98438 208.901298c2.099385 3.498975-0.099971 8.797423-0.099971 12.896222V496.117153c0 101.870155 90.373523 199.741482 196.042566 248.327248 36.089427 14.795665 50.785122 16.595138 91.273259 16.595138 38.388753 0 58.682808-2.79918 94.07244-17.794786z m0 0"  horiz-adv-x="1024" />

    
    <glyph glyph-name="huo" unicode="&#58886;" d="M475.3 878s271-128.1 300.5-574c0 0 101 101 105.9 150.3 0 0 120.7-285.8-9.9-416.3-130.6-130.6-231.6-147.8-231.6-147.8s81.3 113.3 27.1 174.9C613.2 126.70000000000005 499.9 176 544.3 309c0 0-209.4-108.4-221.7-194.6-12.3-86.2 22.2-174.9 98.5-224.2 2.5 2.5-303 66.5-327.6 315.3-24.6 246.3 157.7 231.6 170 408.9 0 0 32-108.4 29.6-202 0 0 138 135.5 157.7 192.1 22 56.8 56.5 231.7 24.5 273.5z m0 0"  horiz-adv-x="1024" />

    
    <glyph glyph-name="renew" unicode="&#59055;" d="M512-64C277.605-64 86.897 126.70899999999995 86.897 361.10299999999995S277.605 786.207 512 786.207c116.878 0 225.773-46.433 306.693-130.737 9.644-10.027 44.069-47.518 52.628-58.44 11.113-14.242 8.558-34.807-5.685-45.92-14.306-11.114-34.872-8.494-45.92 5.684-7.793 10.027-39.408 44.197-48.158 53.33-68.53 71.403-160.69 110.682-259.558 110.682-198.309 0-359.703-161.394-359.703-359.703S313.691 1.4009999999999536 512 1.4009999999999536s359.703 161.393 359.703 359.702c0 18.075 14.625 32.7 32.7 32.7s32.7-14.625 32.7-32.7C937.103 126.71000000000004 746.395-64 512-64zM838.684 524.604h-215.49c-18.075 0-32.7 14.626-32.7 32.7s14.625 32.701 32.7 32.701h209.294V799.3c0 18.074 14.626 32.7 32.7 32.7s32.701-14.626 32.701-32.7v-215.49c0-32.636-26.57-59.206-59.205-59.206z"  horiz-adv-x="1024" />

    
    <glyph glyph-name="anzhuo" unicode="&#58883;" d="M882.121 533.036c13.703 0 25.32-4.32 34.855-12.959 9.531-8.638 14.299-19.213 14.299-31.723v-263.63c0-11.915-4.767-22.193-14.299-30.832-9.533-8.636-21.152-12.956-34.855-12.956h-16.085c-13.703 0-25.32 4.32-34.853 12.956-9.531 8.638-14.299 18.917-14.299 30.832v263.63c0 12.51 4.767 23.087 14.299 31.723 9.531 8.639 21.15 12.96 34.853 12.96h16.085z m-724.756 0c13.703 0 25.022-4.32 33.959-12.959 8.937-8.638 13.406-19.213 13.406-31.723v-263.63c0-11.915-4.468-22.193-13.406-30.832-8.937-8.636-20.256-12.956-33.96-12.956H141.28c-13.703 0-25.32 4.32-34.853 12.956-9.532 8.638-14.298 18.917-14.298 30.832v263.63c0 12.51 4.766 23.087 14.298 31.723 9.533 8.639 21.15 12.96 34.853 12.96h16.086z m493.3 207.33c10.724-4.767 21.894-11.32 33.513-19.661 11.616-8.34 22.787-18.171 33.511-29.491a213.407 213.407 0 0 0 28.151-37.088c8.042-13.404 13.853-27.554 17.426-42.449h-507.6c9.534 31.577 24.576 57.493 45.13 77.75 20.555 20.257 41.258 36.342 62.11 48.257L317.33 809.178c-1.192 1.19-1.34 3.425-0.447 6.701s4.021 6.702 9.383 10.276c4.767 4.171 9.234 6.107 13.405 5.81 4.17-0.3 6.852-1.043 8.042-2.235l46.471-73.28c16.681 7.744 34.256 13.703 52.725 17.873 18.47 4.17 37.534 6.255 57.194 6.255 40.512 0 78.345-8.34 113.495-25.023l47.361 74.174c1.193 1.192 3.428 1.787 6.706 1.787 3.276 0 8.192-1.787 14.744-5.363 5.957-2.979 9.383-5.659 10.279-8.043 0.891-2.383 0.744-4.17-0.448-5.361l-45.574-72.384zM401.333 663.51c7.744 0 14.299 2.682 19.66 8.043 5.362 5.362 8.044 11.916 8.044 19.66 0 7.745-2.682 14.3-8.043 19.66-5.362 5.364-11.917 8.044-19.661 8.044s-14.298-2.68-19.66-8.043c-5.363-5.361-8.044-11.916-8.044-19.66 0-7.745 2.681-14.3 8.043-19.66 5.363-5.362 11.917-8.044 19.661-8.044z m219.841 3.576c7.744 0 14.299 2.68 19.66 8.043 5.36 5.362 8.043 11.916 8.043 19.66 0 7.745-2.682 14.298-8.042 19.661-5.362 5.361-11.917 8.042-19.661 8.042-7.746 0-14.299-2.68-19.66-8.042-5.363-5.363-8.043-11.916-8.043-19.662 0-7.743 2.68-14.297 8.042-19.66 5.363-5.362 11.915-8.042 19.661-8.042z m142.092-111.708l0.894-402.148c0-13.106-4.32-24.128-12.958-33.065-8.64-8.936-19.214-13.405-31.724-13.405h-12.514v-125.113c0-11.915-4.32-22.34-12.957-31.277-8.64-8.937-19.215-13.404-31.725-13.404h-25.916c-11.916 0-22.191 4.466-30.831 13.404-8.638 8.936-12.957 19.363-12.957 31.277V106.761H428.145v-125.113c0-11.915-4.322-22.34-12.96-31.277s-19.213-13.404-31.724-13.404h-25.916c-11.916 0-22.194 4.466-30.831 13.404-8.64 8.936-12.96 19.363-12.96 31.277V106.761h-9.83c-12.51 0-23.085 4.468-31.724 13.405-8.638 8.936-12.957 19.959-12.957 33.065V555.378h504.023z"  horiz-adv-x="1024" />

    
    <glyph glyph-name="dian" unicode="&#58932;" d="M253.60266875 384.37499999m-106.31249999 0a106.3125 106.3125 0 1 1 212.62500003 0 106.3125 106.3125 0 1 1-212.62500003 0Z"  horiz-adv-x="1024" />

    
    <glyph glyph-name="time" unicode="&#59033;" d="M968.021333 576.512c-24.917333 59.050667-60.757333 111.957333-106.154666 157.354667s-98.304 81.237333-157.354667 106.154666C643.754667 865.962667 578.901333 878.933333 512 878.933333s-131.754667-12.970667-192.512-38.912c-59.050667-24.917333-111.957333-60.757333-157.354667-106.154666-45.397333-45.397333-81.237333-98.304-106.154666-157.354667C30.037333 515.7546669999999 17.066667 450.901333 17.066667 384s12.970667-131.754667 38.912-192.512c24.917333-59.050667 60.757333-111.957333 106.154666-157.354667 45.397333-45.397333 98.304-81.237333 157.354667-106.154666 61.098667-25.941333 125.952-38.912 192.512-38.912 66.901333 0 131.754667 12.970667 192.512 38.912 59.050667 24.917333 111.957333 60.757333 157.354667 106.154666 45.397333 45.397333 81.237333 98.304 106.154666 157.354667 25.941333 61.098667 38.912 125.952 38.912 192.512s-12.970667 131.754667-38.912 192.512zM512-63.82933300000002c-246.784 0-447.829333 201.045333-447.829333 447.829333C64.170667 630.784 265.216 831.829333 512 831.829333S959.829333 630.784 959.829333 384c0-246.784-201.045333-447.829333-447.829333-447.829333zM809.642667 406.186667h-271.018667V677.205333c0 12.970667-10.581333 23.552-23.552 23.552s-23.552-10.581333-23.552-23.552v-294.570666c0-12.970667 10.581333-23.552 23.552-23.552h294.570667c12.970667 0 23.552 10.581333 23.552 23.552 0 12.970667-10.581333 23.552-23.552 23.552z"  horiz-adv-x="1024" />

    
    <glyph glyph-name="jian" unicode="&#60112;" d="M918.674286 589.775238c5.851429 5.851429 9.427302 13.815873 9.427301 22.593016V739.799365c0 17.554286-14.303492 31.857778-31.857777 31.857778h-121.904762c-10.565079 2.275556-21.942857-0.16254-30.069842-8.289524l-231.944127-232.431746-230.806349 230.48127c-8.126984 8.289524-19.504762 10.565079-30.069841 8.289524H129.869206c-17.554286 0-31.857778-14.140952-31.857777-31.695238v-126.780953c0-8.777143 3.575873-16.741587 9.427301-22.593016 0.16254-0.16254 0.16254-0.325079 0.32508-0.487619l231.131428-230.806349-143.847619-143.847619-39.984762 40.309841c-12.840635 12.840635-33.645714 12.840635-46.486349 0-12.840635-12.840635-12.840635-33.645714 0-46.648889l102.725079-103.375238-101.912381-103.212698c-12.840635-12.840635-12.840635-33.808254 0-46.648889 12.840635-12.840635 33.645714-12.840635 46.48635 0l101.912381 103.212698 102.562539-103.212698c12.840635-12.840635 33.645714-12.840635 46.486349 0 12.840635 12.840635 12.840635 33.645714 0 46.648889l-38.196825 38.521905 144.172698 144.172698 143.197461-143.034921-38.196826-38.359365c-12.840635-12.840635-12.840635-33.645714 0-46.486349 12.840635-12.840635 33.645714-12.840635 46.48635 0l102.4 102.72508 101.424761-102.4c12.840635-12.840635 33.645714-12.840635 46.48635 0 12.840635 12.840635 12.840635 33.645714 0 46.486349l-101.587302 102.4 102.56254 102.887619c12.840635 12.840635 12.840635 33.645714 0 46.486349-12.840635 12.840635-33.645714 12.840635-46.486349 0l-39.984762-39.984762-143.034921 142.872381 231.944127 232.431746c0.487619 0.16254 0.487619 0.487619 0.650159 0.487619zM161.564444 627.321905v78.994285H243.809524l222.029206-221.866666-80.619682-80.619683L161.564444 627.321905z m621.389207-459.824762l-80.457143-80.782222-143.19746 143.03492 80.619682 80.782222 143.034921-143.03492z m81.432381 460.96254l-542.069842-542.88254-80.619682 81.107301 540.444444 541.094604h82.407619v-79.319365z"  horiz-adv-x="1024" />

    
    <glyph glyph-name="pintu" unicode="&#59185;" d="M623.05405 841.314c35.867-68.476 95.246-203.709 147.505-222.243 6.177 4.935 12.185 9.953 18.361 15.016 7.895 123.822 196.846 168.956 230.568 5.021 34.495-167.369-120.046-103.615-189.808-153.77 38.613-76.111 79.716-159.045 118.328-235.242-55.604-29.604-146.132-106.061-212.117-117.387-12.357 2.146-11.757 15.834-16.047 21.365 22.054 139.869-72.936 245.499-207.655 103.23-111.378-117.728 114.897-177.023 102.454-210.232-66.586-41.057-134.975-79.457-201.389-120.387-45.91 73.193-92.589 149.65-138.41 222.844-9.181-4.162-18.449-8.281-27.544-12.402-28.145-99.662-176.508-203.965-237.002-20.934-49.34 149.563 90.355 142.697 172.044 151.15a1172.69 1172.69 0 0 1 15.618 13.344c-40.673 77.611-85.637 156.684-126.396 234.427 70.363 40.63 142.614 85.336 212.975 126.095 55.949-58.692-30.203-197.188 115.071-194.012 91.986 2.017 176.078 121.16 111.979 203.878-35.439 20.251-85.981 17.892-97.479 44.707-11.499 26.687 2.917 17.678 4.207 26.601 69.159 38.616 135.662 80.318 204.737 118.931"  horiz-adv-x="1024" />

    
    <glyph glyph-name="chanpin" unicode="&#58901;" d="M502.3091075 445.95031969a123.66974344 123.66974344 0 0 0-54.22287563 11.62400906L146.22387031 608.54300906c-23.24895563 7.49996531-34.87296469 23.24895563-34.87296468 42.59792907s11.62494656 34.87390219 30.97392 46.42291218L448.16123094 852.35751281a141.36872437 141.36872437 0 0 0 58.04785781 11.62494656 123.66974344 123.66974344 0 0 0 54.22193813-11.62494656l301.93736156-147.06869812c19.34991094-11.62494656 30.97392-27.07487531 30.97392-46.42291219s-11.62494656-34.87390219-30.9748575-46.42291125L556.75604375 457.57432875c-11.84900813-7.79996438-35.09796375-11.62494656-54.44693625-11.62494656z m-61.94784094-541.92688219a91.12083094 91.12083094 0 0 0-30.9729825 7.49996531l-267.06439594 139.56873282c-30.9729825 15.52492875-58.04692031 50.32289344-58.04692031 77.47183124V511.49720531a44.99791781 44.99791781 0 0 0 46.42291125 46.42291219 71.7718575 71.7718575 0 0 0 27.07393781-7.49996531l271.03844063-139.34373469c30.9729825-15.44992875 58.04692031-50.32289344 58.04692031-77.39683125v-379.33325531a47.99790469 47.99790469 0 0 0-46.49791125-50.32289344z m143.24371688 0a44.99791781 44.99791781 0 0 0-46.42291219 46.42291125V329.77960406c0 30.97392 23.24989312 61.94784 58.04785875 77.39683125l270.96344062 143.24371688a71.7718575 71.7718575 0 0 0 27.07393782 7.49996531A44.99791781 44.99791781 0 0 0 939.69022062 511.49720531v-379.10919375c0-30.9729825-23.24989312-61.9469025-58.04785874-77.39589375l-270.96344063-143.468715a55.94786812 55.94786812 0 0 0-27.07393781-7.49996531z"  horiz-adv-x="1024" />

    
    <glyph glyph-name="diannao" unicode="&#58906;" d="M50.917127 98.298343h1233.325967V845.082873H50.917127z m5.657459 741.127071h1222.011049v-735.469613H56.574586zM1288.486188 896H46.674033A46.787182 46.787182 0 0 1 0 849.325967v-755.270718A46.787182 46.787182 0 0 1 46.674033 47.381215H605.348066v-118.806629l-189.920884-16.972376H412.994475v-39.60221h509.171271v39.60221h-2.432707L729.812155-71.425414v118.806629h558.674033a46.787182 46.787182 0 0 1 46.674033 46.674034V849.325967A46.787182 46.787182 0 0 1 1288.486188 896zM910.850829-98.977238V-116.685083H424.309392v17.707845l183.980553 16.236907H616.662983v130.121546h101.834255v-130.121546h8.373038z m412.994475 204.347404a46.787182 46.787182 0 0 0-46.674033-46.674033H57.98895A46.787182 46.787182 0 0 0 11.314917 105.370166V838.01105A46.787182 46.787182 0 0 0 57.98895 884.685083h1219.182321a46.787182 46.787182 0 0 0 46.674033-46.674033z"  horiz-adv-x="1335" />

    
    <glyph glyph-name="ios" unicode="&#58912;" d="M805.173198 342.228404c0 125.645656 111.685028 186.141713 116.338571 190.795255-65.1496 83.763771-162.873999 97.724399-195.448799 97.7244-83.763771 9.307086-162.873999-46.535428-204.755884-46.535428-41.881885 0-107.031485 46.535428-176.834628 41.881885-93.070857 0-176.834627-51.188971-223.370056-125.645656-93.070857-153.566913-23.267714-381.590512 69.803143-502.582626 46.535428-60.496057 97.724399-130.299199 167.527542-125.645656 69.803142 4.653543 93.070857 41.881885 176.834627 41.881885 83.763771 0 107.031485-41.881885 176.834628-41.881885 74.456685 0 120.992114 60.496057 162.873999 120.992113 51.188971 69.803142 74.456685 139.606285 74.456685 144.259828-4.653543 4.653543-144.259828 55.842514-144.259828 204.755885z m-134.952742 372.283426c37.228343 41.881885 60.496057 102.377942 55.842514 158.220456-55.842514 0-120.992114-32.5748-158.220456-74.456685-32.5748-37.228343-65.1496-97.724399-55.842514-153.566914 60.496057-4.653543 120.992114 27.921257 158.220456 69.803143z m0 0"  horiz-adv-x="1024" />

    
    <glyph glyph-name="empty" unicode="&#58882;" d="M1144.459636 896H251.904L0 512V-128h1396.363636V512L1144.459636 896z m178.129455-384h-180.130909V784.011636L1322.589091 512zM317.346909 832h761.669818V512h-190.417454c0-106.007273-85.294545-192-190.417455-192s-190.417455 85.992727-190.417454 192h-190.417455V832zM253.905455 783.988364V512H73.774545l180.13091 272.011636zM1332.898909-64H63.464727v512h388.770909C480.395636 337.59418200000005 579.956364 256 698.181818 256c118.225455 0 217.786182 81.594182 245.946182 192h388.770909v-512z"  horiz-adv-x="1396" />

    
    <glyph glyph-name="energy" unicode="&#58885;" d="M583.99401387-83.73436053l26.09068053 36.35829013c1.1040864 1.5672576 61.7535648 89.428368 25.00605547 131.19551254-9.89395947 11.267904-22.60586773 22.3684448-36.06378134 34.12157546-24.14328533 21.08791253-51.5106048 44.98858347-68.5584192 76.03532587-13.80561493 25.14357973-19.3052864 51.8310624-16.54442346 80.78639787-16.24602133-9.61242453-36.4179712-22.18421333-56.6911168-36.45040534-76.6814304-53.95879573-91.66248853-86.7648096-93.76686827-101.5175264-10.2844768-72.07566613 19.27285227-140.39276907 77.17963093-178.56093013a18.6280448 18.6280448 0 0 0 9.4061376-12.60552213l1.98372267-9.69545707-17.51487787-17.5356352-11.12129813 7.18499093a506.1410304 506.1410304 0 0 1-4.21135467 1.2792352C242.87945493-20.029509329999996 138.4557568 83.30567254000005 125.1548288 217.83030827000005c-13.02717653 130.43264213 37.63493013 185.1387392 82.3316 233.40455147 33.85171733 36.55419733 63.08729067 68.12379093 67.37000213 129.86438186l7.06692907 101.87301334 28.91252053-97.93800427c0.979536-3.32133973 20.19011307-69.1137056 25.5574496-139.52610667 39.6848192 41.46095787 94.3688608 102.74875733 104.4275904 131.64311467l0.2192608 0.59550613c8.73019307 22.5409984 20.99579733 71.3997216 27.54376534 121.17181227 8.07760213 61.38769813 3.20716907 93.27515413-3.41604907 101.92880107l-46.07839893 60.19928213 68.53895786-32.3986304c2.59090453-1.22474453 64.1939712-30.90662293 129.0080992-110.53314667 37.72574827-46.34696 68.88406613-100.2590496 92.6108864-160.23777386 24.98529707-63.1612416 41.7386016-133.23632 49.9576192-208.80717654 29.2213024 33.16539307 58.3478944 72.40131307 60.24988054 91.54701974l7.13958293 71.86548693 28.09775573-66.52928853c1.12095253-2.6544768 27.59696-65.91172693 40.0052768-144.53276694 7.38219627-46.777696 8.19047573-89.29343893 2.40148374-126.3691904-7.482096-47.91291947-26.008944-86.9282816-55.06677334-115.9627584-117.82193067-117.82322773-210.05267947-134.65178133-213.92152106-135.30956266l-44.1167328-7.51323307z m-11.6506368 431.71188373l-14.35052267-42.98929386c-26.46173653-79.26973973 18.07405547-118.16703893 65.22540267-159.3464608 14.4024192-12.5769792 28.0043424-24.45725547 39.49280533-37.5415168 34.48354987-39.1944032 19.863168-94.40259307 2.35088533-132.7108736 35.2749632 16.08125227 89.2532192 47.98946667 150.9704576 109.70800106 77.88671253 77.82314027 43.4874944 229.37223787 20.06037227 303.56136534-8.22939733-13.12188693-19.00688533-27.7578368-32.40381973-44.02721174-23.08071573-28.03288533-45.28179627-50.29364587-46.21722027-51.22647466l-28.67380053-28.67380054-2.67653227 40.46325867C713.10071573 502.0448704 644.64608747 624.8319434699999 589.51444373 693.1724c-29.57938453 36.66707093-58.60737387 62.0415872-80.42701866 78.34210027 1.33632-20.90368213-0.00648747-46.74396373-4.03880107-77.3937024-6.19118507-47.059232-18.3516992-100.1876928-29.60273707-129.37655893-18.58523093-52.5342528-130.55719253-163.4734848-143.28726506-175.97391787l-32.43236267-31.8459392 1.16636053 45.4387808c0.86277013 33.58964267-3.60287467 69.81040853-9.0143232 100.3304064-15.01608853-30.670496-36.42316053-53.784944-57.40857813-76.44400533-43.2500704-46.703744-84.1012512-90.81658453-72.71917547-204.78005334 12.33566293-124.76690347 111.43094613-195.47251733 198.74066347-233.92480746a213.49208213 213.49208213 0 0 0-18.17006293 34.0372448c-15.8723712 37.5077856-21.1514848 79.14518933-15.2638912 120.41024 5.31284587 37.2288448 41.076928 78.65088107 109.33694506 126.62866986 47.93367787 33.69213653 93.77335573 57.525344 95.70258667 58.5230432l40.24659307 20.8336224z"  horiz-adv-x="1024" />

    


  </font>
</defs>
</svg>
